<svg width="100" height="100" fill="none" xmlns="http://www.w3.org/2000/svg"><path d="M73 10H27c-9.389 0-17 7.611-17 17v46c0 9.389 7.611 17 17 17h46c9.389 0 17-7.611 17-17V27c0-9.389-7.611-17-17-17Z" fill="#D3D1BB" stroke="#9C9F83" stroke-width="4"/><path fill-rule="evenodd" clip-rule="evenodd" d="m49.002 53.075-.003.007c-.311.893-.58 2.06-.765 3.55-.026.213.028.41.227.615.22.227.587.409 1.03.409.32 0 .69-.112 1.136-.527.48-.446.953-1.17 1.26-2.08l.017-.049.001-.002c.7-2.07 1.903-3.935 3.453-5.609l.021-.022.021-.022 4.363-4.57c1.629-1.787 2.686-3.4 3.303-4.832.6-1.392.934-3.01.934-4.91 0-4.657-1.313-7.684-3.444-9.692l-.006-.006-.006-.005c-2.149-2.042-5.43-3.33-10.43-3.33-4.936 0-8.228 1.366-10.447 3.622l-.007.007-.006.006c-1.333 1.343-2.326 3.034-2.941 5.176a.62.62 0 0 0-.018.35c.022.084.082.219.23.378.316.343.913.654 1.639.654h.936c.205 0 .584-.065 1.283-.672.752-.655 1.486-1.59 2.42-2.84 1.671-2.236 4.077-3.498 6.911-3.498 2.603 0 5.154.906 6.904 3.193 1.594 2.085 2.065 4.74 2.065 7.301 0 2.572-.733 4.976-2.16 7.117-1.196 1.807-2.855 3.66-4.867 5.557a11.53 11.53 0 0 0-3.052 4.717l-.002.007Zm4.59-12.494a8.659 8.659 0 0 0 1.49-4.904c0-4.33-1.655-6.494-4.968-6.494-1.528 0-2.764.63-3.706 1.892-1.803 2.413-3.896 5.119-6.908 5.119h-.936c-3.616 0-6.694-3.012-5.696-6.487.785-2.733 2.1-5.03 3.947-6.89 3.16-3.211 7.593-4.817 13.3-4.817 5.681 0 10.076 1.477 13.184 4.43 3.134 2.954 4.7 7.154 4.7 12.602 0 2.38-.42 4.545-1.26 6.495-.841 1.95-2.191 3.942-4.051 5.978l-4.395 4.602c-1.248 1.348-2.115 2.739-2.599 4.173l-.018.052c-.962 2.845-3.182 5.324-6.186 5.324-3.053 0-5.602-2.487-5.225-5.518.21-1.689.53-3.147.958-4.375a15.53 15.53 0 0 1 4.089-6.322c1.885-1.778 3.312-3.398 4.28-4.86ZM57 74.5a7.5 7.5 0 1 1-15 0 7.5 7.5 0 0 1 15 0Zm-4 0a3.5 3.5 0 1 1-7 0 3.5 3.5 0 0 1 7 0Z" fill="#9C9F83"/></svg>