<svg width="100" height="100" fill="none" xmlns="http://www.w3.org/2000/svg"><rect x="10" y="10" width="80" height="80" rx="17" fill="#D3D1BB" stroke="#616353" stroke-width="4"/><path d="M36 52a2 2 0 0 1 2-2h24a2 2 0 1 1 0 4H38a2 2 0 0 1-2-2ZM38 62a2 2 0 1 0 0 4h24a2 2 0 1 0 0-4H38Z" fill="#616353"/><path fill-rule="evenodd" clip-rule="evenodd" d="M40 18 24 34v40a8 8 0 0 0 8 8h36a8 8 0 0 0 8-8V26a8 8 0 0 0-8-8H40Zm0 5.657L29.657 34H36a4 4 0 0 0 4-4v-6.343ZM44 22v8a8 8 0 0 1-8 8h-8v36a4 4 0 0 0 4 4h36a4 4 0 0 0 4-4V26a4 4 0 0 0-4-4H44Z" fill="#616353"/></svg>