<svg width="512" height="512" viewBox="0 0 512 512" fill="none" xmlns="http://www.w3.org/2000/svg">
<rect width="512" height="512" rx="100" fill="black"/>
<path fill-rule="evenodd" clip-rule="evenodd" d="M117.333 272.93C117.333 250.708 119.595 230.966 124.119 213.703C128.644 196.44 134.706 181.014 142.307 167.424C150.089 153.65 159.138 141.621 169.453 131.337C179.95 121.053 191.17 112.513 203.114 105.718C226.641 92.1283 249.805 85.3334 272.608 85.3334C295.41 85.3334 313.689 89.4655 327.443 97.7296C341.197 105.81 352.417 116.645 361.104 130.235C377.21 156.13 385.263 190.564 385.263 233.537C385.263 249.515 378.658 257.687 365.447 258.054L175.968 262.186C177.054 302.038 187.189 331.513 206.372 350.613C222.659 366.774 243.743 374.854 269.622 374.854C308.169 374.854 339.477 366.682 363.547 350.337C365.175 350.337 367.166 351.715 369.519 354.469C374.043 359.979 376.305 364.754 376.305 368.794C376.305 377.609 365.447 388.903 343.73 402.677C318.756 418.471 289.619 426.367 256.32 426.367C212.887 426.367 178.773 412.318 153.98 384.22C129.549 356.673 117.333 319.576 117.333 272.93ZM177.597 226.65C229.717 224.079 277.404 220.682 320.656 216.458C322.647 158.058 302.74 128.858 260.935 128.858C237.59 128.858 218.497 138.04 203.657 156.405C190.084 173.301 181.397 196.716 177.597 226.65Z" fill="white"/>
</svg>
