<?xml version="1.0" standalone="no"?>
<!DOCTYPE svg PUBLIC "-//W3C//DTD SVG 20010904//EN"
 "http://www.w3.org/TR/2001/REC-SVG-20010904/DTD/svg10.dtd">
<svg version="1.0" xmlns="http://www.w3.org/2000/svg"
 width="700.000000pt" height="700.000000pt" viewBox="0 0 700.000000 700.000000"
 preserveAspectRatio="xMidYMid meet">
<metadata>
Created by potrace 1.14, written by Peter Selinger 2001-2017
</metadata>
<g transform="translate(0.000000,700.000000) scale(0.100000,-0.100000)"
fill="#000000" stroke="none">
<path d="M3640 5829 c-63 -4 -144 -12 -180 -19 -36 -7 -74 -14 -86 -16 -50 -9
-226 -64 -297 -93 -127 -51 -353 -171 -441 -234 -339 -241 -560 -497 -740
-854 -225 -447 -322 -993 -282 -1583 9 -136 11 -156 51 -385 5 -31 20 -87 53
-195 147 -489 478 -890 898 -1090 149 -71 159 -75 283 -110 78 -23 84 -24 171
-40 30 -5 69 -12 85 -15 146 -26 615 -27 715 0 8 2 32 6 52 9 138 21 326 73
468 132 305 125 638 366 725 525 35 66 36 118 2 192 -27 58 -97 142 -127 152
-10 3 -43 -10 -81 -34 -157 -94 -369 -182 -529 -217 -19 -4 -39 -9 -45 -10
-206 -54 -589 -82 -805 -60 -626 63 -1020 515 -1105 1266 -4 30 -8 69 -10 85
-4 35 -7 119 -6 156 1 24 4 26 49 26 69 1 699 14 1307 28 149 3 362 8 475 10
861 18 822 15 884 47 71 36 111 94 131 190 13 58 13 307 1 423 -4 33 -8 83
-11 110 -34 375 -152 751 -313 1000 -205 318 -537 539 -872 582 -19 2 -41 6
-49 9 -7 2 -63 7 -125 10 -61 3 -115 6 -121 8 -5 1 -62 -1 -125 -5z m161 -618
c253 -65 421 -231 509 -503 11 -35 22 -74 25 -86 3 -12 7 -32 10 -44 4 -20 11
-54 21 -111 8 -48 17 -185 19 -299 l1 -128 -28 -1 c-15 -1 -31 -2 -35 -3 -5
-1 -51 -6 -103 -10 -52 -4 -106 -9 -120 -11 -22 -3 -72 -8 -220 -20 -25 -2
-81 -6 -125 -10 -44 -3 -105 -8 -135 -10 -78 -6 -203 -15 -285 -20 -90 -6
-204 -14 -304 -20 -43 -4 -117 -8 -163 -10 -166 -8 -314 -16 -376 -20 l-64 -5
6 42 c3 24 10 68 16 98 5 30 12 69 14 85 21 120 92 337 152 462 165 345 415
561 724 627 102 21 117 22 260 19 85 -1 150 -8 201 -22z"/>
</g>
</svg>
