<svg width="100" height="100" fill="none" xmlns="http://www.w3.org/2000/svg"><rect x="10" y="10" width="80" height="80" rx="17" fill="#D3D1BB" stroke="#616353" stroke-width="4"/><path d="M77.757 30.424a2 2 0 0 1 0 2.828L65.252 45.757a6 6 0 0 0 0 8.486l12.505 12.505a2 2 0 0 1 0 2.828l-8.18 8.181a2 2 0 0 1-2.83 0L54.244 65.252a6 6 0 0 0-8.486 0L33.252 77.757a2 2 0 0 1-2.828 0l-8.181-8.18a2 2 0 0 1 0-2.83l12.505-12.504a6 6 0 0 0 0-8.486L22.243 33.252a2 2 0 0 1 0-2.828l8.18-8.181a2 2 0 0 1 2.829 0l12.505 12.505a6 6 0 0 0 8.486 0l12.505-12.505-1.414-1.415 1.414 1.415a2 2 0 0 1 2.828 0l8.181 8.18Z" stroke="#616353" stroke-width="4"/></svg>