<svg width="177" height="32" fill="none" xmlns="http://www.w3.org/2000/svg"><path d="M0 17.587c0-2.083.212-3.934.636-5.552.424-1.619.993-3.065 1.705-4.339a15.524 15.524 0 0 1 2.545-3.383A15.365 15.365 0 0 1 8.042 1.91C10.248.637 12.419 0 14.557 0s3.851.387 5.14 1.162a9.276 9.276 0 0 1 3.157 3.048c1.51 2.427 2.265 5.655 2.265 9.684 0 1.498-.62 2.264-1.858 2.299l-17.764.387c.102 3.736 1.052 6.5 2.85 8.29 1.527 1.515 3.504 2.273 5.93 2.273 3.614 0 6.549-.767 8.806-2.299.152 0 .339.13.56.387.424.517.636.965.636 1.343 0 .827-1.018 1.886-3.054 3.177-2.342 1.48-5.073 2.22-8.195 2.22-4.072 0-7.27-1.316-9.594-3.95C1.146 25.438 0 21.96 0 17.587Zm5.65-4.338c4.886-.242 9.357-.56 13.411-.956.187-5.475-1.68-8.213-5.598-8.213-2.189 0-3.979.861-5.37 2.583-1.273 1.584-2.087 3.78-2.443 6.585ZM40.184 30.216C34.519 15.203 31.6 7.455 31.43 6.973c-.17-.5-.348-.956-.535-1.369-.424-.964-.805-1.446-1.145-1.446-.22 0-.466.026-.738.077-.271.052-.492-.043-.662-.284-.17-.24-.254-.542-.254-.904 0-.361.161-.731.484-1.11a4.81 4.81 0 0 1 1.247-.981C30.895.319 31.744 0 32.37 0 33 0 33.5.017 33.873.052c.373.034.721.163 1.044.387.678.448 1.246 1.412 1.705 2.892l7.456 22.572c1.188-2.428 2.07-4.287 2.647-5.578l1.578-3.77c1.9-4.753 2.85-8.093 2.85-10.021v-.336c0-.86-.195-1.54-.585-2.04-.373-.5-1.044-.8-2.01-.904a1.604 1.604 0 0 1-.255-.852c0-.31.161-.611.483-.904.34-.31.764-.577 1.273-.8C51.11.231 52.256 0 53.495 0c1.255 0 2.222.198 2.9.594.696.379 1.044 1.136 1.044 2.273 0 2.41-1.612 7.205-4.835 14.384l-2.316 4.933c-1.595 3.271-2.8 5.492-3.614 6.663-1.459 2.083-2.74 3.125-3.843 3.125-.797 0-1.51-.319-2.138-.956-.22-.223-.39-.49-.508-.8ZM62.147 17.587c0-2.083.212-3.934.636-5.552.425-1.619.993-3.065 1.706-4.339a15.522 15.522 0 0 1 2.544-3.383A15.366 15.366 0 0 1 70.19 1.91C72.395.637 74.567 0 76.704 0c2.138 0 3.852.387 5.141 1.162a9.276 9.276 0 0 1 3.156 3.048c1.51 2.427 2.265 5.655 2.265 9.684 0 1.498-.62 2.264-1.858 2.299l-17.764.387c.102 3.736 1.052 6.5 2.85 8.29 1.528 1.515 3.504 2.273 5.93 2.273 3.614 0 6.55-.767 8.806-2.299.152 0 .34.13.56.387.424.517.636.965.636 1.343 0 .827-1.018 1.886-3.054 3.177-2.341 1.48-5.073 2.22-8.195 2.22-4.072 0-7.27-1.316-9.594-3.95-2.29-2.583-3.436-6.06-3.436-10.434Zm5.65-4.338c4.886-.242 9.357-.56 13.412-.956.186-5.475-1.68-8.213-5.6-8.213-2.188 0-3.978.861-5.369 2.583-1.272 1.584-2.087 3.78-2.443 6.585ZM106.633 31.61c-.34-.086-.883-.129-1.629-.129h-8.118c-1.63 0-2.673-.292-3.13-.878a1.175 1.175 0 0 1-.28-.775c0-.723.135-1.256.406-1.6.408.137.866.206 1.375.206.526 0 .916-.215 1.17-.646.272-.43.4-1.23.382-2.402V8.496c0-1.618-.297-2.625-.89-3.021-.238-.155-.552-.232-.942-.232-.39 0-.704.06-.942.18-.22.12-.407.207-.56.259-.135.051-.254.051-.356 0a1.534 1.534 0 0 1-.305-.284c-.255-.276-.382-.56-.382-.853 0-.31.102-.628.305-.955.22-.345.569-.732 1.044-1.162a9.186 9.186 0 0 1 1.628-1.214C96.784.404 98.158 0 99.532 0c1.51 0 2.418.973 2.723 2.918.102.586.17 1.188.204 1.808 2.545-2.049 5.209-3.478 7.991-4.287A10.667 10.667 0 0 1 113.402 0c4.038 0 6.592 1.618 7.66 4.855 2.647-2.135 5.336-3.607 8.068-4.416A11.544 11.544 0 0 1 132.286 0c1.068 0 2.095.146 3.079.439 1.001.293 1.858.766 2.57 1.42 1.561 1.412 2.342 3.564 2.342 6.457v17.329c0 1.412.475 2.29 1.425 2.634.271.103.594.19.967.258.373.069.712.155 1.018.258.305.086.543.19.712.31.289.224.433.586.433 1.085 0 .603-.136 1.076-.407 1.42-.339-.086-.882-.129-1.629-.129h-8.118c-1.629 0-2.672-.292-3.13-.878a1.173 1.173 0 0 1-.28-.775c0-.723.135-1.256.407-1.6a4.19 4.19 0 0 0 1.349.206c.492 0 .865-.164 1.119-.49.272-.345.425-.974.458-1.886V10.149c0-2.926-.856-4.562-2.57-4.906-.526-.104-1.154-.155-1.883-.155-.713 0-1.493.094-2.342.284-.831.172-1.628.413-2.392.723-1.476.602-2.765 1.369-3.868 2.298v17.252c0 1.429.475 2.307 1.425 2.634.272.103.594.19.967.258.373.069.704.155.993.258.305.086.543.19.712.31.289.224.433.586.433 1.085 0 .62-.127 1.093-.382 1.42-.339-.086-.882-.129-1.629-.129h-8.118c-1.629 0-2.672-.292-3.13-.878a1.173 1.173 0 0 1-.28-.775c0-.74.127-1.274.382-1.6.424.137.882.206 1.374.206.492 0 .865-.18 1.12-.543.271-.361.424-1.024.458-1.988V10.149c0-2.926-.857-4.562-2.571-4.906-.526-.104-1.162-.155-1.908-.155-.747 0-1.561.103-2.443.31-.883.206-1.723.482-2.52.826-1.527.637-2.842 1.446-3.945 2.428v16.993c0 1.412.484 2.29 1.451 2.634a4.9 4.9 0 0 0 .942.258c.373.069.712.155 1.018.258.305.086.543.19.712.31.289.224.433.586.433 1.085 0 .603-.136 1.076-.407 1.42ZM166.668 28.201c-2.477 2.514-5.472 3.77-8.984 3.77-2.715 0-4.886-.791-6.515-2.375-1.646-1.601-2.469-3.676-2.469-6.224 0-3.168 1.392-5.544 4.174-7.128 2.511-1.446 6.049-2.17 10.612-2.17h3.182c.017-.653.025-1.29.025-1.91v-1.937c0-2.307-.331-3.934-.992-4.881-.747-1.068-2.019-1.601-3.818-1.601-4.123 0-6.243 1.498-6.362 4.493a8.22 8.22 0 0 0 .025 1.162c-.339.276-.916.414-1.73.414-.798 0-1.383-.095-1.756-.284a3.11 3.11 0 0 1-.942-.775c-.577-.672-.865-1.524-.865-2.557 0-1.05.297-1.963.89-2.737.611-.792 1.434-1.438 2.469-1.937C155.631.508 158.015 0 160.763 0c2.749 0 4.81.275 6.185.826 1.391.534 2.494 1.249 3.308 2.144 1.442 1.584 2.163 3.71 2.163 6.379l-.254 12.396c0 2.255.101 3.684.305 4.287.221.603.475 1.007.764 1.214.305.207.67.31 1.094.31.441 0 .797-.07 1.069-.207l.712-.335c.238-.087.441.017.611.31.187.275.28.524.28.748 0 .207-.093.482-.28.827-.17.344-.5.714-.992 1.11a8.498 8.498 0 0 1-1.629 1.007c-3.376 1.619-5.675 1.24-6.897-1.136-.254-.465-.433-1.024-.534-1.679Zm-.077-3.383c0-2.479.017-4.941.051-7.386-3.529.138-5.93.37-7.202.698-1.256.31-2.163.61-2.723.903-.56.293-1.001.637-1.323 1.033-.526.655-.789 1.645-.789 2.97 0 1.309.458 2.36 1.374 3.151.916.775 2.231 1.162 3.945 1.162 2.426 0 4.648-.843 6.667-2.53Z" fill="#616353"/></svg>