<svg width="100" height="100" fill="none" xmlns="http://www.w3.org/2000/svg"><rect x="10" y="10" width="80" height="80" rx="17" fill="#D3D1BB" stroke="#616353" stroke-width="4"/><path d="M46.5 20h7a2 2 0 0 1 2 2v2.001c0 2.2 1.433 3.994 3.26 4.768 1.865.789 4.165.528 5.734-1.041l1.416-1.416a2 2 0 0 1 2.828 0l4.95 4.95a2 2 0 0 1 0 2.828l-1.694 1.694c-1.486 1.486-1.77 3.655-1.063 5.444.724 1.83 2.49 3.272 4.67 3.272H78a2 2 0 0 1 2 2v7a2 2 0 0 1-2 2h-2.95c-2.017 0-3.677 1.287-4.406 2.964-.757 1.74-.509 3.893.956 5.358l2.088 2.088a2 2 0 0 1 0 2.828l-4.95 4.95a2 2 0 0 1-2.828 0l-2.362-2.361c-1.384-1.385-3.41-1.654-5.077-.975-1.677.681-2.971 2.315-2.971 4.308V78a2 2 0 0 1-2 2h-7a2 2 0 0 1-2-2v-3.34c0-1.993-1.294-3.627-2.97-4.308-1.669-.679-3.694-.41-5.079.975l-2.361 2.361a2 2 0 0 1-2.828 0l-4.95-4.95a2 2 0 0 1 0-2.828l2.088-2.088c1.465-1.465 1.713-3.618.956-5.358-.73-1.677-2.39-2.964-4.405-2.964H22a2 2 0 0 1-2-2v-7a2 2 0 0 1 2-2h2.398c2.18 0 3.947-1.442 4.67-3.271.708-1.79.424-3.958-1.062-5.444l-1.694-1.695a2 2 0 0 1 0-2.828l4.95-4.95a2 2 0 0 1 2.828 0l1.416 1.416c1.569 1.569 3.87 1.83 5.734 1.04 1.827-.773 3.26-2.566 3.26-4.767V22a2 2 0 0 1 2-2ZM50 65c8.284 0 15-6.716 15-15 0-8.284-6.716-15-15-15-8.284 0-15 6.716-15 15 0 8.284 6.716 15 15 15Z" stroke="#9C9F83" stroke-width="4"/></svg>